<svg width="151" height="195" viewBox="0 0 151 195" fill="none" xmlns="http://www.w3.org/2000/svg">
<g clip-path="url(#clip0)">
<path d="M54.9545 0.587891C65.0039 2.72097 73.5329 9.85576 78.8357 18.6087C84.1385 27.325 86.5488 37.549 87.4017 47.7363C89.1075 67.4122 81.9877 89.0004 73.2362 106.727C54.0646 95.841 45.3131 71.9358 41.6419 59.5418C35.8941 39.9028 37.4145 0.99244 54.9545 0.587891Z" fill="#EC595A"/>
<path d="M98.6769 134.678C93.8562 124.343 96.007 111.508 102.941 102.387C109.839 93.2665 120.964 87.7867 132.385 86.4259C137.651 85.8007 143.584 86.1685 147.403 89.8094C151 93.2297 151.779 98.8198 150.407 103.564C148.998 108.308 145.772 112.28 142.138 115.664C129.752 127.249 115.624 136.259 98.6769 134.678Z" fill="#EC595A"/>
<path d="M88.3299 183.003C88.0704 183.003 87.7737 178.038 87.9962 169.947C88.1074 165.902 88.812 161.011 90.2582 155.862C91.7045 150.75 93.1878 145.049 95.6723 139.312C100.456 127.801 107.872 118.79 114.325 113.789C117.551 111.251 120.443 109.633 122.483 108.603C124.56 107.647 125.746 107.242 125.82 107.389C126.006 107.757 121.37 109.78 115.326 115.002C109.319 120.188 102.384 129.014 97.7118 140.195C95.3385 145.748 93.7811 151.375 92.2236 156.45C90.7032 161.525 89.8503 166.123 89.5537 170.094C88.9603 178.002 88.7008 183.003 88.3299 183.003Z" fill="white"/>
<path d="M56.4381 30.3408C56.5865 30.304 57.291 32.5474 58.4035 36.6665C59.516 40.7487 61.0364 46.7067 62.8905 54.0989C66.5617 68.8466 71.3453 89.2579 76.129 111.913C80.8755 134.604 84.6208 155.236 86.9941 170.241C88.1808 177.744 89.0708 183.812 89.5899 188.042C90.1461 192.271 90.3686 194.588 90.2203 194.625C90.072 194.662 89.5528 192.345 88.737 188.189C87.8841 183.628 86.7716 177.67 85.4367 170.536C82.6555 155.604 78.6876 135.046 73.9411 112.391C69.0462 89.9567 64.6705 69.6557 61.333 54.4667C59.8126 47.3319 58.5148 41.4475 57.5506 36.8871C56.6977 32.6945 56.2898 30.3776 56.4381 30.3408Z" fill="white"/>
<path d="M75.5366 146.96C64.0781 125.777 41.7173 110.808 17.6507 108.161C11.495 107.462 4.07854 108.197 1.11194 113.567C-1.85466 118.936 1.55693 125.593 5.59892 130.227C22.2861 149.608 51.5071 157.258 75.6849 148.579" fill="#EC595A"/>
<path d="M27.1434 123.351C27.1805 123.204 28.4042 123.387 30.6292 123.829C32.8541 124.27 35.9691 125.079 39.8256 126.183C47.4276 128.573 58.1815 132.361 67.9713 140.084C72.8291 143.946 76.7969 148.433 79.7264 152.92C82.6559 157.443 84.3617 161.967 85.5855 165.792C86.6609 169.653 87.2913 172.853 87.4767 175.096C87.6992 177.34 87.7733 178.553 87.625 178.553C87.18 178.627 86.6609 173.699 84.1022 166.27C82.7301 162.592 80.9502 158.289 78.0206 154.023C75.1282 149.757 71.3087 145.491 66.5992 141.813C57.1803 134.384 46.723 130.449 39.3436 127.69C31.8529 125.079 27.0693 123.718 27.1434 123.351Z" fill="white"/>
</g>
<defs>
<clipPath id="clip0">
<rect width="151" height="194" fill="white" transform="translate(0 0.587891)"/>
</clipPath>
</defs>
</svg>
